# SM_NpcCar_Van - generated for EmvHighway
mtllib SM_NpcCar_Van.mtl
o SM_NpcCar_Van
v -270.00 100.00 19.80
v -270.00 100.00 118.25
v -270.00 -100.00 19.80
v -270.00 -100.00 118.25
v 270.00 100.00 19.80
v 270.00 100.00 118.25
v 270.00 -100.00 19.80
v 270.00 -100.00 118.25
v -190.00 98.00 118.25
v -190.00 98.00 215.00
v -190.00 -98.00 118.25
v -190.00 -98.00 215.00
v 150.00 98.00 118.25
v 150.00 98.00 215.00
v 150.00 -98.00 118.25
v 150.00 -98.00 215.00
v 257.00 96.00 21.80
v 257.00 96.00 41.80
v 257.00 -96.00 21.80
v 257.00 -96.00 41.80
v 271.00 96.00 21.80
v 271.00 96.00 41.80
v 271.00 -96.00 21.80
v 271.00 -96.00 41.80
v -271.00 96.00 21.80
v -271.00 96.00 41.80
v -271.00 -96.00 21.80
v -271.00 -96.00 41.80
v -257.00 96.00 21.80
v -257.00 96.00 41.80
v -257.00 -96.00 21.80
v -257.00 -96.00 41.80
v 203.40 99.00 36.00
v 192.86 99.00 61.46
v 167.40 99.00 72.00
v 141.94 99.00 61.46
v 131.40 99.00 36.00
v 141.94 99.00 10.54
v 167.40 99.00 0.00
v 192.86 99.00 10.54
v 203.40 73.00 36.00
v 192.86 73.00 61.46
v 167.40 73.00 72.00
v 141.94 73.00 61.46
v 131.40 73.00 36.00
v 141.94 73.00 10.54
v 167.40 73.00 0.00
v 192.86 73.00 10.54
v 203.40 -73.00 36.00
v 192.86 -73.00 61.46
v 167.40 -73.00 72.00
v 141.94 -73.00 61.46
v 131.40 -73.00 36.00
v 141.94 -73.00 10.54
v 167.40 -73.00 0.00
v 192.86 -73.00 10.54
v 203.40 -99.00 36.00
v 192.86 -99.00 61.46
v 167.40 -99.00 72.00
v 141.94 -99.00 61.46
v 131.40 -99.00 36.00
v 141.94 -99.00 10.54
v 167.40 -99.00 0.00
v 192.86 -99.00 10.54
v -131.40 99.00 36.00
v -141.94 99.00 61.46
v -167.40 99.00 72.00
v -192.86 99.00 61.46
v -203.40 99.00 36.00
v -192.86 99.00 10.54
v -167.40 99.00 0.00
v -141.94 99.00 10.54
v -131.40 73.00 36.00
v -141.94 73.00 61.46
v -167.40 73.00 72.00
v -192.86 73.00 61.46
v -203.40 73.00 36.00
v -192.86 73.00 10.54
v -167.40 73.00 0.00
v -141.94 73.00 10.54
v -131.40 -73.00 36.00
v -141.94 -73.00 61.46
v -167.40 -73.00 72.00
v -192.86 -73.00 61.46
v -203.40 -73.00 36.00
v -192.86 -73.00 10.54
v -167.40 -73.00 0.00
v -141.94 -73.00 10.54
v -131.40 -99.00 36.00
v -141.94 -99.00 61.46
v -167.40 -99.00 72.00
v -192.86 -99.00 61.46
v -203.40 -99.00 36.00
v -192.86 -99.00 10.54
v -167.40 -99.00 0.00
v -141.94 -99.00 10.54
vt -1.0000 0.1980
vt 1.0000 0.1980
vt 1.0000 1.1825
vt -1.0000 1.1825
vt -1.0000 0.1980
vt -1.0000 1.1825
vt 1.0000 1.1825
vt 1.0000 0.1980
vt -2.7000 0.1980
vt -2.7000 1.1825
vt 2.7000 1.1825
vt 2.7000 0.1980
vt -2.7000 0.1980
vt 2.7000 0.1980
vt 2.7000 1.1825
vt -2.7000 1.1825
vt -2.7000 -1.0000
vt 2.7000 -1.0000
vt 2.7000 1.0000
vt -2.7000 1.0000
vt -2.7000 -1.0000
vt -2.7000 1.0000
vt 2.7000 1.0000
vt 2.7000 -1.0000
vt -0.9800 1.1825
vt 0.9800 1.1825
vt 0.9800 2.1500
vt -0.9800 2.1500
vt -0.9800 1.1825
vt -0.9800 2.1500
vt 0.9800 2.1500
vt 0.9800 1.1825
vt -1.9000 1.1825
vt -1.9000 2.1500
vt 1.5000 2.1500
vt 1.5000 1.1825
vt -1.9000 1.1825
vt 1.5000 1.1825
vt 1.5000 2.1500
vt -1.9000 2.1500
vt -1.9000 -0.9800
vt 1.5000 -0.9800
vt 1.5000 0.9800
vt -1.9000 0.9800
vt -1.9000 -0.9800
vt -1.9000 0.9800
vt 1.5000 0.9800
vt 1.5000 -0.9800
vt -0.9600 0.2180
vt 0.9600 0.2180
vt 0.9600 0.4180
vt -0.9600 0.4180
vt -0.9600 0.2180
vt -0.9600 0.4180
vt 0.9600 0.4180
vt 0.9600 0.2180
vt 2.5700 0.2180
vt 2.5700 0.4180
vt 2.7100 0.4180
vt 2.7100 0.2180
vt 2.5700 0.2180
vt 2.7100 0.2180
vt 2.7100 0.4180
vt 2.5700 0.4180
vt 2.5700 -0.9600
vt 2.7100 -0.9600
vt 2.7100 0.9600
vt 2.5700 0.9600
vt 2.5700 -0.9600
vt 2.5700 0.9600
vt 2.7100 0.9600
vt 2.7100 -0.9600
vt -0.9600 0.2180
vt 0.9600 0.2180
vt 0.9600 0.4180
vt -0.9600 0.4180
vt -0.9600 0.2180
vt -0.9600 0.4180
vt 0.9600 0.4180
vt 0.9600 0.2180
vt -2.7100 0.2180
vt -2.7100 0.4180
vt -2.5700 0.4180
vt -2.5700 0.2180
vt -2.7100 0.2180
vt -2.5700 0.2180
vt -2.5700 0.4180
vt -2.7100 0.4180
vt -2.7100 -0.9600
vt -2.5700 -0.9600
vt -2.5700 0.9600
vt -2.7100 0.9600
vt -2.7100 -0.9600
vt -2.7100 0.9600
vt -2.5700 0.9600
vt -2.5700 -0.9600
vt -0.9900 0.3600
vt -0.9900 0.6146
vt -0.7300 0.6146
vt -0.7300 0.3600
vt 1.9286 -0.9900
vt 1.6740 -0.9900
vt 1.6740 -0.7300
vt 1.9286 -0.7300
vt 1.6740 -0.9900
vt 1.4194 -0.9900
vt 1.4194 -0.7300
vt 1.6740 -0.7300
vt -0.9900 0.6146
vt -0.9900 0.3600
vt -0.7300 0.3600
vt -0.7300 0.6146
vt -0.9900 0.3600
vt -0.9900 0.1054
vt -0.7300 0.1054
vt -0.7300 0.3600
vt 1.4194 -0.9900
vt 1.6740 -0.9900
vt 1.6740 -0.7300
vt 1.4194 -0.7300
vt 1.6740 -0.9900
vt 1.9286 -0.9900
vt 1.9286 -0.7300
vt 1.6740 -0.7300
vt -0.9900 0.1054
vt -0.9900 0.3600
vt -0.7300 0.3600
vt -0.7300 0.1054
vt 2.0340 0.3600
vt 1.9286 0.6146
vt 1.6740 0.7200
vt 1.4194 0.6146
vt 1.3140 0.3600
vt 1.4194 0.1054
vt 1.6740 0.0000
vt 1.9286 0.1054
vt 1.9286 0.1054
vt 1.6740 0.0000
vt 1.4194 0.1054
vt 1.3140 0.3600
vt 1.4194 0.6146
vt 1.6740 0.7200
vt 1.9286 0.6146
vt 2.0340 0.3600
vt 0.7300 0.3600
vt 0.7300 0.6146
vt 0.9900 0.6146
vt 0.9900 0.3600
vt 1.9286 0.7300
vt 1.6740 0.7300
vt 1.6740 0.9900
vt 1.9286 0.9900
vt 1.6740 0.7300
vt 1.4194 0.7300
vt 1.4194 0.9900
vt 1.6740 0.9900
vt 0.7300 0.6146
vt 0.7300 0.3600
vt 0.9900 0.3600
vt 0.9900 0.6146
vt 0.7300 0.3600
vt 0.7300 0.1054
vt 0.9900 0.1054
vt 0.9900 0.3600
vt 1.4194 0.7300
vt 1.6740 0.7300
vt 1.6740 0.9900
vt 1.4194 0.9900
vt 1.6740 0.7300
vt 1.9286 0.7300
vt 1.9286 0.9900
vt 1.6740 0.9900
vt 0.7300 0.1054
vt 0.7300 0.3600
vt 0.9900 0.3600
vt 0.9900 0.1054
vt 2.0340 0.3600
vt 1.9286 0.6146
vt 1.6740 0.7200
vt 1.4194 0.6146
vt 1.3140 0.3600
vt 1.4194 0.1054
vt 1.6740 0.0000
vt 1.9286 0.1054
vt 1.9286 0.1054
vt 1.6740 0.0000
vt 1.4194 0.1054
vt 1.3140 0.3600
vt 1.4194 0.6146
vt 1.6740 0.7200
vt 1.9286 0.6146
vt 2.0340 0.3600
vt -0.9900 0.3600
vt -0.9900 0.6146
vt -0.7300 0.6146
vt -0.7300 0.3600
vt -1.4194 -0.9900
vt -1.6740 -0.9900
vt -1.6740 -0.7300
vt -1.4194 -0.7300
vt -1.6740 -0.9900
vt -1.9286 -0.9900
vt -1.9286 -0.7300
vt -1.6740 -0.7300
vt -0.9900 0.6146
vt -0.9900 0.3600
vt -0.7300 0.3600
vt -0.7300 0.6146
vt -0.9900 0.3600
vt -0.9900 0.1054
vt -0.7300 0.1054
vt -0.7300 0.3600
vt -1.9286 -0.9900
vt -1.6740 -0.9900
vt -1.6740 -0.7300
vt -1.9286 -0.7300
vt -1.6740 -0.9900
vt -1.4194 -0.9900
vt -1.4194 -0.7300
vt -1.6740 -0.7300
vt -0.9900 0.1054
vt -0.9900 0.3600
vt -0.7300 0.3600
vt -0.7300 0.1054
vt -1.3140 0.3600
vt -1.4194 0.6146
vt -1.6740 0.7200
vt -1.9286 0.6146
vt -2.0340 0.3600
vt -1.9286 0.1054
vt -1.6740 0.0000
vt -1.4194 0.1054
vt -1.4194 0.1054
vt -1.6740 0.0000
vt -1.9286 0.1054
vt -2.0340 0.3600
vt -1.9286 0.6146
vt -1.6740 0.7200
vt -1.4194 0.6146
vt -1.3140 0.3600
vt 0.7300 0.3600
vt 0.7300 0.6146
vt 0.9900 0.6146
vt 0.9900 0.3600
vt -1.4194 0.7300
vt -1.6740 0.7300
vt -1.6740 0.9900
vt -1.4194 0.9900
vt -1.6740 0.7300
vt -1.9286 0.7300
vt -1.9286 0.9900
vt -1.6740 0.9900
vt 0.7300 0.6146
vt 0.7300 0.3600
vt 0.9900 0.3600
vt 0.9900 0.6146
vt 0.7300 0.3600
vt 0.7300 0.1054
vt 0.9900 0.1054
vt 0.9900 0.3600
vt -1.9286 0.7300
vt -1.6740 0.7300
vt -1.6740 0.9900
vt -1.9286 0.9900
vt -1.6740 0.7300
vt -1.4194 0.7300
vt -1.4194 0.9900
vt -1.6740 0.9900
vt 0.7300 0.1054
vt 0.7300 0.3600
vt 0.9900 0.3600
vt 0.9900 0.1054
vt -1.3140 0.3600
vt -1.4194 0.6146
vt -1.6740 0.7200
vt -1.9286 0.6146
vt -2.0340 0.3600
vt -1.9286 0.1054
vt -1.6740 0.0000
vt -1.4194 0.1054
vt -1.4194 0.1054
vt -1.6740 0.0000
vt -1.9286 0.1054
vt -2.0340 0.3600
vt -1.9286 0.6146
vt -1.6740 0.7200
vt -1.4194 0.6146
vt -1.3140 0.3600
usemtl Body
f 1/1 3/2 4/3 2/4
f 5/5 6/6 8/7 7/8
f 1/9 2/10 6/11 5/12
f 3/13 7/14 8/15 4/16
f 1/17 5/18 7/19 3/20
f 2/21 4/22 8/23 6/24
usemtl Trim
f 9/25 11/26 12/27 10/28
f 13/29 14/30 16/31 15/32
f 9/33 10/34 14/35 13/36
f 11/37 15/38 16/39 12/40
f 9/41 13/42 15/43 11/44
f 10/45 12/46 16/47 14/48
f 17/49 19/50 20/51 18/52
f 21/53 22/54 24/55 23/56
f 17/57 18/58 22/59 21/60
f 19/61 23/62 24/63 20/64
f 17/65 21/66 23/67 19/68
f 18/69 20/70 24/71 22/72
f 25/73 27/74 28/75 26/76
f 29/77 30/78 32/79 31/80
f 25/81 26/82 30/83 29/84
f 27/85 31/86 32/87 28/88
f 25/89 29/90 31/91 27/92
f 26/93 28/94 32/95 30/96
f 33/97 34/98 42/99 41/100
f 34/101 35/102 43/103 42/104
f 35/105 36/106 44/107 43/108
f 36/109 37/110 45/111 44/112
f 37/113 38/114 46/115 45/116
f 38/117 39/118 47/119 46/120
f 39/121 40/122 48/123 47/124
f 40/125 33/126 41/127 48/128
f 33/129 34/130 35/131 36/132 37/133 38/134 39/135 40/136
f 48/137 47/138 46/139 45/140 44/141 43/142 42/143 41/144
f 49/145 50/146 58/147 57/148
f 50/149 51/150 59/151 58/152
f 51/153 52/154 60/155 59/156
f 52/157 53/158 61/159 60/160
f 53/161 54/162 62/163 61/164
f 54/165 55/166 63/167 62/168
f 55/169 56/170 64/171 63/172
f 56/173 49/174 57/175 64/176
f 49/177 50/178 51/179 52/180 53/181 54/182 55/183 56/184
f 64/185 63/186 62/187 61/188 60/189 59/190 58/191 57/192
f 65/193 66/194 74/195 73/196
f 66/197 67/198 75/199 74/200
f 67/201 68/202 76/203 75/204
f 68/205 69/206 77/207 76/208
f 69/209 70/210 78/211 77/212
f 70/213 71/214 79/215 78/216
f 71/217 72/218 80/219 79/220
f 72/221 65/222 73/223 80/224
f 65/225 66/226 67/227 68/228 69/229 70/230 71/231 72/232
f 80/233 79/234 78/235 77/236 76/237 75/238 74/239 73/240
f 81/241 82/242 90/243 89/244
f 82/245 83/246 91/247 90/248
f 83/249 84/250 92/251 91/252
f 84/253 85/254 93/255 92/256
f 85/257 86/258 94/259 93/260
f 86/261 87/262 95/263 94/264
f 87/265 88/266 96/267 95/268
f 88/269 81/270 89/271 96/272
f 81/273 82/274 83/275 84/276 85/277 86/278 87/279 88/280
f 96/281 95/282 94/283 93/284 92/285 91/286 90/287 89/288
